# xmcd
#
# Track frame offsets: 
#        150
#        12505
#        22703
#        36233
#        50150
#        60795
#        73865
#        85578
#        94393
#        106205
#        121465
#        134968
#        147143
#        154755
#        164630
#        177333
#        188648
#        199410
#        210373
#        220970
#        234798
#        246483
#        259658
#        271865
#        283428
#
# Disc length: 3920 seconds
#
# Revision: 5
# Processed by: cddbd v1.5.2PL0 Copyright (c) Steve Scherf et al.
# Submitted via: ExactAudioCopyFreeDBPlugin 1.0
#
DISCID=770f4e19
DTITLE=Various Artist - 25 Country Classics (Volume 1)
DYEAR=1991
DGENRE=Country
TTITLE0=Kenny Rogers - Reuben James
TTITLE1=Frankie Laine - I Believe
TTITLE2=Willie Nelson - You`ll Always Have To Love Someone
TTITLE3=Freddy Fender - Wasted Days And Wasted Nights
TTITLE4=Waylon Jennings - Burning Memories
TTITLE5=Donna Fargo - Daddy Dumplin
TTITLE6=George Jones - Your Tender Years
TTITLE7=Patsy Cline - Come On In (And Make Yourself at Home)
TTITLE8=Roy Drusky - Take These Chains From My Heart
TTITLE9=Barbara Fairchild - Slippin' Away
TTITLE10=Kenny Rogers - The First Edition - Shine On Ruby Mountain
TTITLE11=Stonewall Jackson - Ol' Blue
TTITLE12=George Jones - I'm Ragged But Right
TTITLE13=Donna Fargo - Sticks And Stones
TTITLE14=Frankie Laine - High Noon (Do Not Forsake Me)
TTITLE15=Roy Drusky - The Last Letter
TTITLE16=Freddy Fender - Wild Side of Life
TTITLE17=Stonewall Jackson - Should I Come Home (Or Should I Go Crazy)
TTITLE17=?
TTITLE18=Waylon Jennings - Dream Baby (How Long Must I Dream)
TTITLE19=Barbara Fairchild - Crazy Arms
TTITLE20=Patsy Cline - Cry Not For Me
TTITLE21=Kenny Rogers - The First Edition - Ruby, Don't Take Your Love 
TTITLE21=To Town
TTITLE22=Roy Drusky - Luckenbach, Texas (Back to the Basics of Love)
TTITLE23=Donna Fargo - Wishful Thinking
TTITLE24=Waylon Jennings - Money (That's What I Want)
EXTD=YEAR: 1991 ID3G: 2
EXTT0=
EXTT1=
EXTT2=
EXTT3=
EXTT4=
EXTT5=
EXTT6=
EXTT7=
EXTT8=
EXTT9=
EXTT10=
EXTT11=
EXTT12=
EXTT13=
EXTT14=
EXTT15=
EXTT16=
EXTT17=
EXTT18=
EXTT19=
EXTT20=
EXTT21=
EXTT22=
EXTT23=
EXTT24=
PLAYORDER=
